# xmcd
#
# Track frame offsets:
#	150
#	10563
#	26542
#	40092
#	56361
#	73426
#
# Disc length: 1345 seconds
#
# Revision: 1
# Processed by: cddbd v1.5.2PL0 Copyright (c) Steve Scherf et al.
# Submitted via: audiograbber 1.83.01
#
DISCID=44053f06
DTITLE=Murder Intentions - Conception Of A Virulent Breed
DYEAR=2012
DGENRE=Death Metal
TTITLE0=Conception Of A Virulent Breed
TTITLE1=Sluggish
TTITLE2=Immaculate Being
TTITLE3=Failed Humanity
TTITLE4=Infected Casualties
TTITLE5=On The Sending Out Of The Soul
EXTD=
EXTT0=
EXTT1=
EXTT2=
EXTT3=
EXTT4=
EXTT5=
PLAYORDER=
